<?xml version="1.0" encoding="utf-8"?>
<!-- Generator: Adobe Illustrator 19.0.0, SVG Export Plug-In . SVG Version: 6.00 Build 0)  -->
<svg version="1.0" xmlns="http://www.w3.org/2000/svg" xmlns:xlink="http://www.w3.org/1999/xlink" x="0px" y="0px" width="772.8px"
	 height="772.8px" viewBox="0 0 772.8 772.8" enable-background="new 0 0 772.8 772.8" xml:space="preserve">
<g id="Layer_3">
	<rect id="XMLID_12_" width="772.8" height="772.8"/>
</g>
<g id="Layer_2">
	<g id="XMLID_9_">
		<path id="XMLID_22_" fill="#FFFFFF" d="M375.9,410c-6.1,0-10.7-1.5-13.6-4.4c-2.9-2.9-4.4-7.2-4.4-12.6c0-3.7,0.7-6.8,1.9-9.3
			c1.3-2.5,3.1-4.5,5.3-6c2.3-1.6,4.9-2.8,7.9-3.7c3.1-0.9,6.4-1.5,9.9-2l1-0.1v-4.2c0-2-0.3-3.8-0.8-5.2c-0.5-1.5-1.3-2.6-2.2-3.5
			c-0.9-0.9-2.1-1.5-3.4-1.8c-1.2-0.3-2.6-0.5-4-0.5c-2.4,0-4.7,0.4-6.8,1.2c-1.6,0.6-3,1.2-4.2,1.9l-1.8-5.6
			c1.4-0.8,3.2-1.6,5.4-2.5c2.6-1,5.7-1.5,9.3-1.5c2.3,0,4.5,0.3,6.4,1c1.9,0.6,3.6,1.7,5,3.2c1.4,1.5,2.6,3.5,3.4,6
			c0.9,2.5,1.3,5.6,1.3,9.3v36.5c-1.6,0.8-3.7,1.8-6.3,2.5C382.6,409.6,379.4,410,375.9,410z M382.7,376.2c-2.6,0.4-4.9,0.9-6.9,1.5
			c-2.1,0.7-3.9,1.6-5.4,2.8c-1.5,1.2-2.7,2.8-3.6,4.8c-0.8,1.9-1.2,4.3-1.2,7.2c0,4.2,1,7.3,2.9,9.3c1.9,1.9,4.6,2.9,8,2.9
			c1.3,0,2.6-0.2,3.8-0.5c1.2-0.3,2.3-0.8,3.2-1.3l0.4-0.2L384,376L382.7,376.2z"/>
	</g>
	<g id="XMLID_6_">
		<path id="XMLID_8_" fill="#FFFFFF" d="M420.2,410c-2.5,0-4.8-0.7-7-1.9c-2.2-1.3-4.1-3.2-5.7-5.7c-1.6-2.5-2.9-5.7-3.8-9.4
			c-0.9-3.7-1.4-8.1-1.4-12.9c0-4.8,0.5-9.2,1.4-12.9c0.9-3.7,2.3-6.8,3.9-9.3c1.6-2.4,3.5-4.3,5.7-5.6c2.1-1.3,4.4-1.9,6.9-1.9
			c2.8,0,5,0.4,6.6,1.2c1.4,0.7,2.5,1.4,3.2,2.1l-1.6,5.4c-0.4-0.3-0.9-0.6-1.4-0.9c-1.2-0.6-2.7-0.9-4.4-0.9
			c-2.1,0-3.9,0.6-5.4,1.7c-1.5,1.1-2.7,2.7-3.6,4.7c-0.9,1.9-1.5,4.3-1.9,7.1c-0.4,2.7-0.6,5.7-0.6,9c0,6.8,0.9,12.3,2.7,16.3
			c1.9,4.3,4.8,6.5,8.7,6.5c1.6,0,3.1-0.3,4.2-0.8c0.6-0.3,1.2-0.6,1.7-1l1.8,6c-0.9,0.8-2,1.5-3.4,2.2
			C425.2,409.6,422.9,410,420.2,410z"/>
	</g>
	<g id="XMLID_3_">
		<path id="XMLID_7_" fill="#FFFFFF" d="M464,408.9V368c0-1.4-0.1-2.8-0.4-4.1c-0.3-1.4-0.8-2.6-1.5-3.6c-0.7-1.1-1.7-1.9-2.9-2.6
			c-1.2-0.6-2.7-0.9-4.4-0.9c-1.5,0-2.9,0.2-4.2,0.6c-1.3,0.4-2.6,1.1-3.8,2.1l-0.3,0.2l-0.1,49.1h-8.3v-84.7h8.3v30.7l1.6-1
			c3.2-2,6.4-3,9.7-3c2.7,0,5,0.5,6.9,1.4s3.3,2.2,4.5,3.7c1.1,1.5,2,3.3,2.5,5.4c0.5,2.1,0.8,4.2,0.8,6.4v41.2H464z"/>
	</g>
	<g id="XMLID_2_">
		<path id="XMLID_4_" fill="#FFFFFF" d="M306.8,409.8c-2.7,0-5.1-0.4-7.3-1.2c-1.8-0.7-3.4-1.5-4.6-2.4l2.1-6.4
			c0.8,0.5,1.7,1,2.7,1.5c1.7,0.8,3.6,1.1,5.7,1.1c2.6,0,4.7-0.9,6.3-2.8c1.5-1.8,2.3-4,2.3-6.7c0-2.8-0.6-5.1-1.9-6.7
			c-1.2-1.5-3.2-2.9-5.8-4.2c-2.1-1.1-3.9-2.2-5.2-3.4c-1.3-1.2-2.4-2.5-3.1-3.8c-0.7-1.3-1.2-2.7-1.5-4.1c-0.3-1.4-0.4-2.9-0.4-4.4
			c0-2.2,0.3-4.4,1-6.3c0.7-2,1.6-3.7,2.9-5.1c1.2-1.4,2.7-2.6,4.4-3.4c1.7-0.8,3.6-1.3,5.8-1.3c2.5,0,4.7,0.4,6.7,1.1
			c1.7,0.6,3.1,1.4,4.5,2.4l-1.9,5.6c-0.6-0.4-1.2-0.8-2-1.3c-1.5-0.8-3.2-1.2-5.1-1.2c-2.6,0-4.7,0.9-6,2.8c-1.3,1.7-2,3.8-2,6.2
			c0,2.7,0.8,4.9,2.3,6.5c1.4,1.5,3.3,2.8,5.5,3.9c2.2,1.1,4,2.3,5.4,3.6c1.4,1.2,2.5,2.6,3.2,3.9c0.8,1.4,1.3,2.8,1.6,4.3
			c0.3,1.5,0.5,3.1,0.5,4.8c0,2.3-0.4,4.5-1.1,6.6c-0.7,2.1-1.8,3.9-3.2,5.5c-1.4,1.5-3.1,2.8-5,3.7
			C311.4,409.4,309.2,409.8,306.8,409.8z"/>
	</g>
	<g id="XMLID_40_">
		
			<rect id="XMLID_13_" x="335.3" y="305.7" transform="matrix(0.9576 0.2879 -0.2879 0.9576 125.042 -81.2605)" fill="#FFFFFF" width="7" height="157.5"/>
	</g>
</g>
</svg>
